<?xml version="1.0" encoding="UTF-8" standalone="no"?>
<svg width="2100px" height="2970px" version="1.1" xmlns="http://www.w3.org/2000/svg" xmlns:xlink="http://www.w3.org/1999/xlink" overflow="visible">
   <desc>Engraved by Verovio 3.0.0-dev-200b644</desc>
   <defs>
      <symbol id="E050" viewBox="0 0 1000 1000" overflow="inherit">
         <path transform="scale(1,-1)" d="M441 -245c-23 -4 -48 -6 -76 -6c-59 0 -102 7 -130 20c-88 42 -150 93 -187 154c-26 44 -43 103 -48 176c0 6 -1 13 -1 19c0 54 15 111 45 170c29 57 65 106 110 148s96 85 153 127c-3 16 -8 46 -13 92c-4 43 -5 73 -5 89c0 117 16 172 69 257c34 54 64 82 89 82 c21 0 43 -30 69 -92s39 -115 41 -159v-15c0 -109 -21 -162 -67 -241c-13 -20 -63 -90 -98 -118c-13 -9 -25 -19 -37 -29l31 -181c8 1 18 2 28 2c58 0 102 -12 133 -35c59 -43 92 -104 98 -184c1 -7 1 -15 1 -22c0 -123 -87 -209 -181 -248c8 -57 17 -110 25 -162 c5 -31 6 -58 6 -80c0 -30 -5 -53 -14 -70c-35 -64 -88 -99 -158 -103c-5 0 -11 -1 -16 -1c-37 0 -72 10 -108 27c-50 24 -77 59 -80 105v11c0 29 7 55 20 76c18 28 45 42 79 44h6c49 0 93 -42 97 -87v-9c0 -51 -34 -86 -105 -106c17 -24 51 -36 102 -36c62 0 116 43 140 85 c9 16 13 41 13 74c0 20 -1 42 -5 67c-8 53 -18 106 -26 159zM461 939c-95 0 -135 -175 -135 -286c0 -24 2 -48 5 -71c50 39 92 82 127 128c40 53 60 100 60 140v8c-4 53 -22 81 -55 81h-2zM406 119l54 -326c73 25 110 78 110 161c0 7 0 15 -1 23c-7 95 -57 142 -151 142h-12 zM382 117c-72 -2 -128 -47 -128 -120v-7c2 -46 43 -99 75 -115c-3 -2 -7 -5 -10 -10c-70 33 -116 88 -123 172v11c0 68 44 126 88 159c23 17 49 29 78 36l-29 170c-21 -13 -52 -37 -92 -73c-50 -44 -86 -84 -109 -119c-45 -69 -67 -130 -67 -182v-13c5 -68 35 -127 93 -176 s125 -73 203 -73c25 0 50 3 75 9c-19 111 -36 221 -54 331z" />
      </symbol>
      <symbol id="E082" viewBox="0 0 1000 1000" overflow="inherit">
         <path transform="scale(1,-1)" d="M104 -185c-18 0 -55 -14 -65 -65h-36l-3 29c0 25 6 46 18 64c11 19 22 30 39 43l121 82l37 29c15 11 27 29 38 54c12 24 18 47 18 70c0 40 -19 88 -94 88c-25 0 -32 0 -50 -8c-14 -5 -23 -12 -26 -22c3 -9 7 -15 10 -18l24 -17c12 -7 17 -11 27 -21c5 -7 7 -16 7 -27 c0 -12 0 -57 -79 -74c-30 0 -76 26 -76 94c0 66 81 135 197 135c72 0 181 -32 181 -150c0 -53 -32 -95 -113 -133l-91 -41c-26 -11 -45 -23 -57 -37l49 7c84 0 115 -41 148 -41c20 0 33 20 39 61h35c0 -152 -68 -168 -114 -168c-17 0 -65 0 -79 7h10l-28 17 c-49 37 -69 40 -87 42z" />
      </symbol>
      <symbol id="E084" viewBox="0 0 1000 1000" overflow="inherit">
         <path transform="scale(1,-1)" d="M0 -78c84 97 114 180 134 329h170c-13 -32 -82 -132 -99 -151l-84 -97c-33 -36 -59 -63 -80 -81h162v102l127 123v-225h57v-39h-57v-34c0 -43 19 -65 57 -65v-34h-244v36c48 0 60 26 60 70v27h-203v39z" />
      </symbol>
      <symbol id="E0A4" viewBox="0 0 1000 1000" overflow="inherit">
         <path transform="scale(1,-1)" d="M0 -39c0 68 73 172 200 172c66 0 114 -37 114 -95c0 -84 -106 -171 -218 -171c-64 0 -96 30 -96 94z" />
      </symbol>
      <symbol id="E240" viewBox="0 0 1000 1000" overflow="inherit">
         <path transform="scale(1,-1)" d="M179 -646c15 29 29 55 46 102c18 49 30 108 30 138c0 105 -80 173 -168 200c-18 5 -47 9 -87 16v190h22c8 0 33 -61 71 -95c4 -3 -2 3 61 -56c62 -58 122 -137 122 -241c0 -38 -13 -106 -35 -163c-20 -51 -43 -99 -66 -132c-6 -5 -10 -7 -13 -7s-5 2 -5 5l4 10 c1 3 14 25 18 33z" />
      </symbol>
      <symbol id="E260" viewBox="0 0 1000 1000" overflow="inherit">
         <path transform="scale(1,-1)" d="M20 110c32 16 54 27 93 27c26 0 35 -3 54 -13c13 -7 24 -20 27 -38l4 -25c0 -28 -16 -57 -45 -89c-23 -25 -39 -44 -65 -68l-88 -79v644h20v-359zM90 106c-32 0 -48 -10 -70 -29v-194c31 31 54 59 71 84c21 32 32 59 32 84c0 9 1 16 1 20c0 14 -3 21 -11 30l-8 3z" />
      </symbol>
      <symbol id="E261" viewBox="0 0 1000 1000" overflow="inherit">
         <path transform="scale(1,-1)" d="M0 -188v539h18v-191l139 22v-533h-17v186zM18 -100l122 17v176l-122 -19v-174z" />
      </symbol>
   </defs>
   <style type="text/css">g.page-margin{font-family:Times;} g.reh, g.tempo{font-weight:bold;} g.dir, g.dynam, g.mNum{font-style:italic;} g.label{font-weight:normal;}</style>
   <svg class="definition-scale" color="black" viewBox="0 0 21000 29700">
      <g class="page-margin" transform="translate(500, 500)">
         <g id="system-0000001491750306" class="system">
            <g id="section-L1F1" class="section boundaryStart" />
            <g id="measure-L1" class="measure">
               <g id="mnum-0000000958962865" class="mNum autogenerated">
                  <text x="0" y="450" text-anchor="middle" font-size="0px">
                     <tspan id="text-0000000424101320" class="text">
                        <tspan font-size="324px" class="text">18</tspan>
                     </tspan>
                  </text>
               </g>
               <g id="staff-0000000502232832" class="staff">
                  <path d="M0 720 L4330 720" stroke="currentColor" stroke-width="13" />
                  <path d="M0 900 L4330 900" stroke="currentColor" stroke-width="13" />
                  <path d="M0 1080 L4330 1080" stroke="currentColor" stroke-width="13" />
                  <path d="M0 1260 L4330 1260" stroke="currentColor" stroke-width="13" />
                  <path d="M0 1440 L4330 1440" stroke="currentColor" stroke-width="13" />
                  <g id="clef-0000000648964454" class="clef">
                     <use xlink:href="#E050" x="90" y="1260" height="720px" width="720px" />
                  </g>
                  <g id="keysig-0000000076135265" class="keySig">
                     <use xlink:href="#E260" x="735" y="1080" height="720px" width="720px" />
                     <use xlink:href="#E260" x="915" y="810" height="720px" width="720px" />
                     <use xlink:href="#E260" x="1095" y="1170" height="720px" width="720px" />
                  </g>
                  <g id="msig-0000001852628890" class="meterSig">
                     <use xlink:href="#E082" x="1417" y="900" height="720px" width="720px" />
                     <use xlink:href="#E084" x="1423" y="1260" height="720px" width="720px" />
                  </g>
                  <g id="layer-L1F1N1" class="layer">
                     <g id="beam-L6F1-L7F1" class="beam">
                        <polygon points="1976,1440 2574,1485 2574,1395 1976,1350 " />
                        <polygon points="2416,1339 2574,1350 2574,1260 2416,1249 " />
                        <g id="note-L6F1" class="note marked" fill="red">
                           <g class="notehead">
                              <use xlink:href="#E0A4" x="1976" y="810" height="720px" width="720px" />
                           </g>
                           <g id="dots-0000000787931038" class="dots">
                              <ellipse cx="2292" cy="810" rx="36" ry="36" />
                           </g>
                           <g id="stem-0000001163804902" class="stem">
                              <rect x="1976" y="832" height="590" width="18" />
                           </g>
                           <g id="accid-0000000183306211" class="accid" />
                        </g>
                        <g id="note-L7F1" class="note">
                           <g class="notehead">
                              <use xlink:href="#E0A4" x="2556" y="900" height="720px" width="720px" />
                           </g>
                           <g id="stem-0000001372788264" class="stem">
                              <rect x="2556" y="922" height="545" width="18" />
                           </g>
                           <g id="accid-0000001176487168" class="accid" />
                        </g>
                     </g>
                     <g id="beam-L8F1-L11F1" class="beam">
                        <polygon points="2872,1665 4005,1845 4005,1755 2872,1575 " />
                        <polygon points="2872,1530 3364,1608 3364,1518 2872,1440 " />
                        <polygon points="3364,1608 3680,1659 3680,1569 3364,1518 " />
                        <polygon points="3680,1659 4005,1710 4005,1620 3680,1569 " />
                        <g id="note-L8F1" class="note marked" fill="red">
                           <g class="notehead">
                              <use xlink:href="#E0A4" x="2872" y="900" height="720px" width="720px" />
                           </g>
                           <g id="stem-0000002035533327" class="stem">
                              <rect x="2872" y="922" height="725" width="18" />
                           </g>
                           <g id="accid-0000001363570909" class="accid" />
                        </g>
                        <g id="note-L9F1" class="note">
                           <g class="notehead">
                              <use xlink:href="#E0A4" x="3355" y="1080" height="720px" width="720px" />
                           </g>
                           <g id="stem-0000001794130179" class="stem">
                              <rect x="3355" y="1102" height="623" width="18" />
                           </g>
                           <g id="accid-0000000743515994" class="accid">
                              <use xlink:href="#E261" x="3188" y="1080" height="720px" width="720px" />
                           </g>
                        </g>
                        <g id="note-L10F1" class="note">
                           <g class="notehead">
                              <use xlink:href="#E0A4" x="3671" y="1080" height="720px" width="720px" />
                           </g>
                           <g id="stem-0000001128030926" class="stem">
                              <rect x="3671" y="1102" height="674" width="18" />
                           </g>
                           <g id="accid-0000000643875003" class="accid" />
                        </g>
                        <g id="note-L11F1" class="note">
                           <g class="notehead">
                              <use xlink:href="#E0A4" x="3987" y="1260" height="720px" width="720px" />
                           </g>
                           <g id="stem-0000000830137566" class="stem">
                              <rect x="3987" y="1282" height="545" width="18" />
                           </g>
                           <g id="accid-0000001579032976" class="accid" />
                        </g>
                     </g>
                  </g>
               </g>
               <g id="slur-L6F1-L7F1" class="slur">
                  <path d="M2089,652 C2232,491 2580,545 2668,741 C2571,598 2223,544 2089,652" stroke="currentColor" stroke-linecap="round" stroke-linejoin="round" stroke-width="9" />
               </g>
               <g id="slur-L8F1-L9F1" class="slur">
                  <path d="M2985,742 C3140,618 3430,725 3467,921 C3411,776 3121,669 2985,742" stroke="currentColor" stroke-linecap="round" stroke-linejoin="round" stroke-width="9" />
               </g>
               <g id="slur-L10F1-L11F1" class="slur">
                  <path d="M3784,922 C3930,809 4121,917 4099,1101 C4094,964 3903,856 3784,922" stroke="currentColor" stroke-linecap="round" stroke-linejoin="round" stroke-width="9" />
               </g>
               <g id="bline-0000002095488421" class="barLineAttr">
                  <path d="M4317 1440 L4317 720" stroke="currentColor" stroke-width="27" />
               </g>
            </g>
            <g id="measure-L12" class="measure">
               <g id="staff-L12F1N1" class="staff">
                  <path d="M4330 720 L7097 720" stroke="currentColor" stroke-width="13" />
                  <path d="M4330 900 L7097 900" stroke="currentColor" stroke-width="13" />
                  <path d="M4330 1080 L7097 1080" stroke="currentColor" stroke-width="13" />
                  <path d="M4330 1260 L7097 1260" stroke="currentColor" stroke-width="13" />
                  <path d="M4330 1440 L7097 1440" stroke="currentColor" stroke-width="13" />
                  <g id="layer-L12F1N1" class="layer">
                     <g id="beam-L13F1-L14F1" class="beam">
                        <polygon points="4510,1620 5137,1665 5137,1575 4510,1530 " />
                        <polygon points="4979,1519 5137,1530 5137,1440 4979,1429 " />
                        <g id="note-L13F1" class="note marked" fill="red">
                           <g class="notehead">
                              <use xlink:href="#E0A4" x="4510" y="990" height="720px" width="720px" />
                           </g>
                           <g id="dots-0000000614591961" class="dots">
                              <ellipse cx="4826" cy="990" rx="36" ry="36" />
                           </g>
                           <g id="stem-0000002068300850" class="stem">
                              <rect x="4510" y="1012" height="590" width="18" />
                           </g>
                           <g id="accid-0000000601413329" class="accid" />
                        </g>
                        <g id="note-L14F1" class="note">
                           <g class="notehead">
                              <use xlink:href="#E0A4" x="5119" y="1080" height="720px" width="720px" />
                           </g>
                           <g id="stem-0000000050746457" class="stem">
                              <rect x="5119" y="1102" height="545" width="18" />
                           </g>
                           <g id="accid-0000000121286308" class="accid">
                              <use xlink:href="#E261" x="4952" y="1080" height="720px" width="720px" />
                           </g>
                        </g>
                     </g>
                     <g id="note-L15F1" class="note">
                        <g class="notehead">
                           <use xlink:href="#E0A4" x="5435" y="990" height="540px" width="540px" />
                        </g>
                        <g id="stem-0000000344694940" class="stem">
                           <rect x="5586" y="563" height="411" width="18" />
                           <path d="M5528 831 L5729 630" stroke="currentColor" stroke-width="21" />
                           <g id="flag-0000001524460621" class="flag">
                              <use xlink:href="#E240" x="5586" y="563" height="540px" width="540px" />
                           </g>
                        </g>
                        <g id="accid-0000001473970088" class="accid" />
                     </g>
                     <g id="beam-L16F1-L19F1" class="beam">
                        <polygon points="6014,495 6980,540 6980,630 6014,585 " />
                        <polygon points="6014,630 6339,645 6339,735 6014,720 " />
                        <polygon points="6339,645 6655,660 6655,750 6339,735 " />
                        <polygon points="6655,660 6980,675 6980,765 6655,750 " />
                        <g id="note-L16F1" class="note marked" fill="red">
                           <g class="notehead">
                              <use xlink:href="#E0A4" x="5806" y="1080" height="720px" width="720px" />
                           </g>
                           <g id="stem-0000002129748437" class="stem">
                              <rect x="6014" y="513" height="545" width="18" />
                           </g>
                           <g id="accid-0000000534898403" class="accid" />
                        </g>
                        <g id="note-L17F1" class="note">
                           <g class="notehead">
                              <use xlink:href="#E0A4" x="6122" y="1170" height="720px" width="720px" />
                           </g>
                           <g id="stem-0000000424552463" class="stem">
                              <rect x="6330" y="528" height="620" width="18" />
                           </g>
                           <g id="accid-0000001743610603" class="accid" />
                        </g>
                        <g id="note-L18F1" class="note">
                           <g class="notehead">
                              <use xlink:href="#E0A4" x="6438" y="1260" height="720px" width="720px" />
                           </g>
                           <g id="stem-0000001512570307" class="stem">
                              <rect x="6646" y="543" height="695" width="18" />
                           </g>
                           <g id="accid-0000000218167893" class="accid" />
                        </g>
                        <g id="note-L19F1" class="note">
                           <g class="notehead">
                              <use xlink:href="#E0A4" x="6754" y="1350" height="720px" width="720px" />
                           </g>
                           <g id="stem-0000002005220210" class="stem">
                              <rect x="6962" y="558" height="770" width="18" />
                           </g>
                           <g id="accid-0000000191287023" class="accid" />
                        </g>
                     </g>
                  </g>
               </g>
               <g id="slur-L13F1-L14F1" class="slur">
                  <path d="M4623,832 C4771,664 5136,718 5231,921 C5129,771 4764,717 4623,832" stroke="currentColor" stroke-linecap="round" stroke-linejoin="round" stroke-width="9" />
               </g>
               <g id="slur-L15F1-L16F1" class="slur">
                  <path d="M5519,1154 C5553,1274 5685,1284 5738,1169 C5682,1337 5550,1327 5519,1154" stroke="currentColor" stroke-linecap="round" stroke-linejoin="round" stroke-width="9" />
               </g>
               <g id="bline-0000001652672427" class="barLineAttr">
                  <path d="M7084 1440 L7084 720" stroke="currentColor" stroke-width="27" />
               </g>
            </g>
            <g id="bdend-0000001038887520" class="boundaryEnd section-L1F1" />
         </g>
         <g id="pghead-0000001435419472" class="pgHead autogenerated" />
         <g id="pgfoot-0000001540498530" class="pgFoot autogenerated">
            <g id="fig-0000001095945478" class="fig">
               <g id="fig-0000000588408427" class="svg" transform="translate(7750, 28099) scale(10, 10)">
                  <g>
                     <path fill="#00000" d="M 17.11278,49.26451 V 10.367554 h 12.696511 c 3.288815,7.336676 6.71267,14.610456 10.127281,21.888976 3.419998,-7.484684 6.255515,-14.204887 9.58887,-21.909915 2.436207,0.103726 4.316952,0.08453 6.484294,-0.05808 V 49.264423 H 50.274275 C 50.145222,38.35639 50.016136,27.448368 49.887066,16.540329 45.003488,27.315459 39.967448,38.433564 35.083854,49.208695 34.678996,49.343717 34.426583,49.135619 34.021726,49.270644 29.46588,39.330716 24.910049,29.390805 20.354201,19.450876 20.224341,29.388756 20.09461,39.326619 19.964815,49.264497 H 17.11278 Z M 36.754144,39.324695 C 32.721221,30.512695 28.6883,21.700679 24.655394,12.888662 22.530527,12.750737 22.656775,12.71031 20.714356,12.813974 v 0.966497 c 4.612938,9.99784 9.609439,20.748709 13.87298,30.081745 0.722248,-1.512523 1.444528,-3.025014 2.166808,-4.537521 z m 25.738417,9.939815 c 0,-12.965651 0,-25.931305 0,-38.896956 10.084388,0 20.168791,0 30.253178,0 0,0.960416 0,1.920849 0,2.881265 -6.482825,0 -12.965652,0 -19.448478,0 0,4.802097 0,9.604178 0,14.406277 5.52241,0 11.044819,0 16.567229,0 0,0.960415 0,1.920832 0,2.881248 -5.52241,0 -11.044819,0 -16.567229,0 0,5.282306 0,10.564611 0,15.846917 6.963035,0 13.926068,0 20.889103,0 0,0.960416 0,1.920832 0,2.881249 -10.564597,0 -21.129207,0 -31.693803,0 z m 4.321874,-2.160937 c 0,-11.765131 0,-23.530263 0,-35.295394 -0.720312,0 -1.440625,0 -2.160937,0 0,11.765131 0,23.530263 0,35.295394 0.720312,0 1.440625,0 2.160937,0 z m 32.41413,2.160937 c 0,-12.965651 0,-25.931305 0,-38.896956 2.401045,0 4.802095,0 7.203135,0 0,12.965651 0,25.931305 0,38.896956 -2.40104,0 -4.80209,0 -7.203135,0 z m 2.881265,-2.160937 c 0,-11.765131 0,-23.530263 0,-35.295394 -0.72031,0 -1.44064,0 -2.160953,0 0,11.765131 0,23.530263 0,35.295394 0.720313,0 1.440643,0 2.160953,0 z" />
                     <path fill="#00000" d="m 346.3,6.7 c -3.1,0.5 -4.9,4.4 -2.7,6.8 1.2,1.4 2.7,2.4 4.1,3.5 -2.4,5.3 -7.7,8.3 -11.9,12.1 -3.7,2.8 -7,6.2 -9.7,9.9 -2.2,-0.8 -0.3,-6.8 -0.6,-9.5 0.1,-3.1 0.7,-6.4 2.9,-8.7 1.3,-1.9 3,-3.5 4.5,-5.2 1.2,-3.4 -3.2,-4.9 -5.8,-4.6 -7.3,-0.5 -14.6,2 -20,6.8 -5,4.6 -10,10.1 -11.5,17 -0.9,3.5 -0.2,7.5 2.8,9.9 2.5,2.8 7.4,2.9 9.8,-0.2 1.7,-2.3 3.2,-4.8 3.8,-7.6 -0.1,-2.6 -4.4,-2.3 -4.3,0.2 1.2,2.4 -0.9,4.7 -2.7,6.2 -1.7,0.9 -4.7,0.7 -4.8,-1.7 -1,-5.8 2.1,-11.3 5.2,-16.1 4,-5.8 9.8,-11.2 17.2,-11.8 1.6,0 8.1,-1.2 6.8,1.4 -2.8,2.8 -5.6,6.1 -6,10.3 -1.6,7.7 0.1,15.7 -2.3,23.2 -1.1,3.9 2,2.6 2.5,0.2 3.3,-7.4 8.9,-13.4 15.1,-18.5 4.2,-3.9 9.5,-7.1 11.9,-12.6 1.3,-3.6 1.2,-9 -2.7,-10.9 -0.6,-0.2 -1.2,-0.3 -1.8,-0.3 z m 66,14.5 c -2,0.8 -1.8,4.9 0.8,4.4 3.4,0.4 2.9,-6.2 -0.8,-4.4 z m 0.6,7.3 c -1.3,0.5 -7.6,0.5 -5.4,2.2 4,-0.3 0.7,4.5 0.6,6.7 -0.4,2.9 -2.4,5.9 -1.2,8.8 2.7,1.7 5.6,-0.8 6.8,-3.2 1.6,-1.4 -0.5,-3 -1.2,-0.9 -0.4,0.8 -2.4,3.5 -2.6,1.8 1.1,-5 2.7,-9.9 3.9,-14.9 l -0.1,-0.5 h -0.9 z m -65.1,0.2 c -6.5,1.6 -10.5,9.5 -8.2,15.7 2.1,3.4 7.4,2.9 10.1,0.4 2,-0.2 3.6,-5.3 1,-3.4 -1.4,2 -4,4.2 -6.5,2.8 -2.2,-1.9 -1.9,-5.7 1.7,-5.3 3.1,-0.9 6.9,-2.1 8.1,-5.5 0.9,-2.7 -1.6,-5.2 -4.3,-4.8 h -1.1 -0.7 z m 13.6,0 c -2.2,0 -8.5,1.8 -2.9,2.3 0.9,1.9 -1,4.9 -1.1,7.2 -0.5,2.9 -1.4,5.7 -1.7,8.7 3.7,0.7 3.8,-2.6 4.4,-5.3 0.9,-3.3 1.6,-7 4.1,-9.5 2.4,1.6 6.8,-0.7 3.7,-3.4 -2.9,-0.5 -4.8,2.4 -6.2,4.3 0,-1.2 2.4,-5 -0.2,-4.3 z m 15.8,0 c -6.4,1.3 -9.6,9.1 -7.7,14.9 1.9,4 7.7,3.9 11,1.7 4.1,-3 6,-8.9 4.4,-13.7 -1.3,-3 -4.8,-3.2 -7.6,-3 z m 17,0 c -2.3,0 -8.8,1.9 -3,2.4 0.4,2.5 -1,5.7 -1.4,8.4 -0.7,2.4 -1.8,7.5 2.1,7.2 3.8,-0.1 6.5,-3.5 8.5,-6.3 2,-3.2 4.5,-7 3.3,-10.9 -3.7,-3 -3.6,2.6 -3.1,5.1 -0.7,3.8 -2.7,7.9 -6.2,9.8 -3.6,0.6 -1,-4.3 -0.8,-6.1 0.6,-3.2 1.6,-6.3 1.9,-9.5 -0.4,0 -0.8,0 -1.1,0 z m 30.6,0 c -6.3,1.2 -9.5,8.9 -7.8,14.7 1.5,4 7.2,4.2 10.5,2.4 4.6,-2.8 6.6,-9.3 4.8,-14.3 -1.4,-2.8 -4.8,-3 -7.5,-2.8 z m -75.4,1.7 c 2.1,1.5 0.2,4.7 -1.6,5.7 -1.1,0.4 -5.5,3.4 -4.6,0.7 0.8,-2.7 2.2,-6.2 5.3,-6.6 l 0.9,0.1 z m 30.8,0 c 2.6,1.5 1.3,5.2 0.8,7.6 -0.8,2.7 -1.9,5.9 -4.7,7.1 -5.1,0.8 -4,-5.8 -2.8,-8.8 1,-2.8 3,-6.8 6.7,-5.8 z m 47.1,-0.1 c 2.9,0.7 2,4.7 1.5,6.8 -0.7,3 -1.8,6.7 -5,8 -4.7,0.8 -4,-5.1 -3,-7.9 0.9,-3 2.7,-7.3 6.5,-6.8 z m -88.1,5.9 c -0.3,1.3 0.9,-0.6 0,0 z m -1.1,2.4 c -0.2,0.5 0.5,-0.1 0,0 z m -1.3,4.5 c -0.3,1.3 0.8,-0.2 0,0 z" />
                     <text y="41" x="201" fill="#00000" style="font-style:italic;font-weight:normal;font-size:30px;line-height:125%;font-family:Times;text-anchor:middle" xml:space="preserve">engraved with</text>
                  </g>
               </g>
            </g>
         </g>
      </g>
   </svg>
</svg>
